<svg width="55" height="55" viewBox="0 0 55 55" fill="none" xmlns="http://www.w3.org/2000/svg">
<mask id="mask0" mask-type="alpha" maskUnits="userSpaceOnUse" x="0" y="0" width="55" height="55">
<path d="M8.00199 32.4969C5.14316 21.8276 11.4748 10.8608 22.1441 8.00199C32.8134 5.14316 43.7802 11.4748 46.639 22.1441C49.4979 32.8134 43.1662 43.7802 32.4969 46.639C21.8276 49.4979 10.8608 43.1662 8.00199 32.4969Z" fill="#C4C4C4"/>
</mask>
<g mask="url(#mask0)">
<path d="M8.00199 32.4969C5.14315 21.8276 11.4748 10.8608 22.1441 8.00199C32.8134 5.14315 43.7802 11.4748 46.639 22.1441C49.4979 32.8134 43.1662 43.7802 32.4969 46.639C21.8276 49.4979 10.8608 43.1662 8.00199 32.4969Z" fill="#4E4E4E"/>
<path fill-rule="evenodd" clip-rule="evenodd" d="M8.00199 32.4969C5.14315 21.8276 11.4748 10.8608 22.1441 8.00199C32.8134 5.14316 43.7802 11.4748 46.639 22.1441C49.4979 32.8134 43.1662 43.7802 32.4969 46.639C21.8276 49.4979 10.8608 43.1662 8.00199 32.4969ZM25.9228 22.3975C26.1879 25.1475 29.3058 26.5354 31.9853 25.8977C34.8658 25.2121 36.0788 22.2333 35.8087 19.2753C35.5425 16.3601 30.991 13.619 30.991 13.619C30.991 13.619 32.5556 15.8094 31.8681 17.0002C31.4873 17.6597 30.8466 17.6428 30.1563 17.6247C29.6002 17.61 29.0119 17.5946 28.5014 17.9312C26.8255 19.0364 25.7305 20.4037 25.9228 22.3975ZM29.5433 24.3358C28.0523 23.8514 26.9615 22.2386 27.6646 20.8051C28.1743 19.7658 29.1182 19.4186 30.2643 19.3737C30.6134 19.3601 30.8938 19.543 31.1588 19.7159C31.4877 19.9306 31.7931 20.1298 32.1769 19.9185C32.8701 19.5369 32.7744 17.9917 32.7744 17.9917C32.7744 17.9917 34.1506 20.6982 33.3981 22.2134C32.6345 23.7508 31.1461 24.8565 29.5433 24.3358ZM29.6923 20.4163C29.0352 20.8544 29.0929 21.8265 29.6029 22.4148C30.1512 23.0472 31.0587 22.9503 31.7674 22.4829C32.4659 22.0223 32.5614 20.5066 32.5614 20.5066C32.5614 20.5066 32.2146 21.1962 31.8254 21.1839C31.6099 21.1771 31.5305 21.0136 31.445 20.8374C31.3762 20.6955 31.3033 20.5453 31.152 20.4623C30.6554 20.1897 30.1687 20.0988 29.6923 20.4163ZM29.5891 32.6577L29.1501 32.9816L21.4022 38.6981L21.3105 38.7657L20.3047 39.5078L20.4445 38.2657L20.4572 38.1526L21.534 28.5844L21.595 28.0423L21.845 27.6093L23.3157 25.0619L24 23.8767L24.3988 25.1859L24.9204 26.8979C25.1335 27.5975 26.1757 27.2165 26.9887 26.7905C27.5469 26.4981 27.997 26.1844 27.997 26.1844C27.997 26.1844 27.9559 26.7195 28.03 27.3505C28.1122 28.0513 28.3366 28.8702 28.9174 29.2056L30.6609 28.8012L31.9941 28.4921L31.3098 29.6773L29.8391 32.2247L29.5891 32.6577ZM28.2051 32.436L22.5605 36.6008L22.7205 36.3236L21.8545 35.8236L21.6944 36.1008L22.4789 29.13L25.342 30.783L28.2051 32.436ZM25.842 29.917L22.711 28.1093L23.7145 26.3711L23.9638 27.1893C24.077 27.5609 24.3132 27.8794 24.6655 28.0775C24.99 28.26 25.3286 28.2934 25.5907 28.2834C26.0959 28.2642 26.6144 28.0707 27.0038 27.8955C27.034 27.8819 27.0641 27.8681 27.094 27.8542C27.1526 28.1786 27.2448 28.532 27.393 28.868C27.581 29.2945 27.8934 29.769 28.4174 30.0716L29.1434 30.1797L29.9766 29.9865L28.973 31.7247L25.842 29.917Z" fill="white"/>
</g>
</svg>
