<svg width="410" height="410" viewBox="0 0 410 410" fill="none" xmlns="http://www.w3.org/2000/svg">
<mask id="mask0" style="mask-type:alpha" maskUnits="userSpaceOnUse" x="0" y="0" width="410" height="410">
<path d="M60.0149 243.727C38.5737 163.707 86.061 81.4562 166.081 60.0149C246.101 38.5737 328.351 86.061 349.793 166.081C371.234 246.101 323.747 328.351 243.727 349.793C163.707 371.234 81.4562 323.747 60.0149 243.727Z" fill="#C4C4C4"/>
</mask>
<g mask="url(#mask0)">
<path d="M60.0149 243.727C38.5737 163.707 86.061 81.4562 166.081 60.0149C246.101 38.5737 328.351 86.061 349.793 166.081C371.234 246.101 323.747 328.351 243.727 349.793C163.707 371.234 81.4562 323.747 60.0149 243.727Z" fill="#4E4E4E"/>
<path fill-rule="evenodd" clip-rule="evenodd" d="M60.0149 243.727C38.5737 163.707 86.061 81.4562 166.081 60.0149C246.101 38.5737 328.351 86.061 349.793 166.081C371.234 246.101 323.747 328.351 243.727 349.793C163.707 371.234 81.4562 323.747 60.0149 243.727ZM194.421 167.981C196.409 188.607 219.793 199.016 239.89 194.233C261.493 189.091 270.591 166.75 268.565 144.565C266.569 122.701 232.433 102.142 232.433 102.142C232.433 102.142 244.167 118.57 239.011 127.501C236.155 132.448 231.349 132.321 226.172 132.185C222.001 132.075 217.589 131.959 213.76 134.484C201.191 142.773 192.979 153.028 194.421 167.981ZM221.574 182.518C210.392 178.885 202.211 166.789 207.484 156.038C211.307 148.243 218.387 145.639 226.982 145.303C229.601 145.2 231.703 146.572 233.691 147.869C236.158 149.479 238.448 150.973 241.327 149.388C246.525 146.526 245.808 134.938 245.808 134.938C245.808 134.938 256.13 155.236 250.486 166.6C244.759 178.131 233.596 186.424 221.574 182.518ZM222.692 153.122C217.764 156.408 218.197 163.699 222.022 168.111C226.134 172.854 232.94 172.127 238.255 168.622C243.494 165.167 244.21 153.8 244.21 153.8C244.21 153.8 241.61 158.971 238.691 158.879C237.074 158.828 236.479 157.602 235.838 156.28C235.321 155.216 234.774 154.09 233.64 153.467C229.915 151.423 226.265 150.741 222.692 153.122ZM221.918 244.932L218.406 247.524L161.065 289.831L160.332 290.372L152.286 296.309L153.404 286.372L153.506 285.467L161.474 214.654L161.962 210.317L163.962 206.853L174.526 188.557L180 179.075L183.191 189.548L186.903 201.734C188.459 206.841 195.904 204.271 201.923 201.184C206.333 198.922 209.978 196.383 209.978 196.383C209.978 196.383 209.645 200.707 210.292 205.671C210.96 210.801 212.674 216.613 216.881 219.042L229.29 216.164L239.956 213.69L234.481 223.172L223.918 241.468L221.918 244.932ZM210.847 243.159L170.331 273.052L170.62 272.552L163.692 268.552L163.403 269.052L169.034 219.019L189.94 231.089L210.847 243.159ZM193.94 224.161L170.891 210.853L177.716 199.03L179.25 204.065C180.134 206.964 181.982 209.462 184.746 211.017C187.287 212.446 189.929 212.702 191.949 212.625C195.838 212.477 199.799 210.992 202.734 209.672L202.832 209.628C203.28 211.912 203.955 214.365 204.99 216.712C206.425 219.967 208.826 223.629 212.881 225.97L218.688 226.835L223.816 225.646L216.99 237.468L193.94 224.161Z" fill="white"/>
</g>
</svg>
