<svg width="32" height="32" viewBox="0 0 32 32" fill="none" xmlns="http://www.w3.org/2000/svg">
<path d="M4.96286 26.4148C-0.320954 20.4861 -0.320954 11.8126 4.96286 5.88388C10.7664 -0.627961 21.2336 -0.627961 27.0371 5.88388C32.321 11.8126 32.321 20.4861 27.0371 26.4148C24.8531 28.8653 22.0086 30.3937 19.0008 30.9998V25.3074L18.5008 23.7668L21.6674 23.0821L24.0008 20.8567V18.2891L23.1674 14.8655L22.3341 11.0995L19.0008 12.6402H13.0008L9.00078 11.0995L8.66745 14.8655L8.00078 18.2891L8.66745 21.3703L11.1674 23.0821L13.8341 23.7668L13.0008 25.3074V31.0002C9.99235 30.3942 7.14726 28.8658 4.96286 26.4148Z" fill="white" stroke="white"/>
</svg>
