<svg width="1500" height="1500" viewBox="0 0 1841 1786" fill="none" xmlns="http://www.w3.org/2000/svg">

<style>
    @keyframes right {
        from {
            transform: rotate(360deg); 
        }
    }
    @keyframes left {
        from {
            transform: rotate(-360deg);
        }
    }
    #Circles2{
        animation: right 180s ease-out infinite;
        transition-duration: 1s;
        transform-origin: center;
        transform-box: fill-box;
    }
    #Circles1{
        animation: left 240s linear infinite;
        transform-origin: center;
        transform-box: fill-box;
    }
  </style>

<g id="Background Lines" filter="url(#filter0_d)">
<path id="Circles2" d="M699.172 2.25928C208.959 123.928 -89.3933 620.469 33.3211 1110.42M995.631 1192.5C1163.34 1150.88 1265.4 981.008 1223.42 813.393M733.381 935.698C759.181 1038.71 863.498 1101.39 966.566 1075.81M990.069 871.632C980.393 833.002 941.275 809.497 902.624 819.09M896.728 894.929C899.953 907.806 912.993 915.641 925.876 912.443M931.69 935.782C957.49 929.378 973.193 903.244 966.734 877.458M890.999 772.414C826.497 788.423 787.24 853.758 803.387 918.225M1410.11 766.8C1342.38 496.391 1068.55 331.856 797.993 399.006M1141.16 1776.08C1631.38 1654.41 1929.73 1157.87 1807.02 667.914M844.706 585.834C677.001 627.458 574.933 797.327 616.915 964.942M1106.96 842.636C1081.16 739.623 976.839 676.943 873.771 702.524M850.268 906.702C859.944 945.332 899.063 968.837 937.713 959.244M943.61 883.406C940.385 870.529 927.345 862.694 914.462 865.892M908.648 842.553C882.847 848.957 867.145 875.091 873.603 900.878M949.338 1005.92C1013.84 989.911 1053.1 924.577 1036.95 860.109M430.234 1011.54C497.961 1281.95 771.792 1446.48 1042.35 1379.33M210.347 462.526C-25.7751 854.551 101.202 1363.83 493.731 1599.11M1162.86 1035.16C1243.64 901.048 1200.2 726.821 1065.91 646.329M830.306 1038.65C912.836 1088.12 1019.83 1061.44 1069.47 979.021M953.719 833.149C922.77 814.598 882.648 824.602 864.031 855.511M908.841 907.877C919.158 914.061 932.532 910.726 938.737 900.423M957.414 911.652C969.841 891.019 963.158 864.215 942.499 851.831M826.677 833.055C795.608 884.637 812.315 951.647 863.964 982.606M1155.66 496.872C939.024 367.016 658.168 437.041 527.85 653.404M1629.99 1315.81C1866.11 923.787 1739.14 414.509 1346.61 179.224M677.479 743.176C596.701 877.29 640.14 1051.52 774.426 1132.01M1010.03 739.686C927.501 690.217 820.508 716.893 770.863 799.317M886.619 945.188C917.568 963.739 957.69 953.735 976.307 922.826M931.496 870.461C921.18 864.277 907.806 867.612 901.6 877.915M882.923 866.686C870.496 887.319 877.179 914.123 897.838 926.507M1013.66 945.282C1044.73 893.7 1028.02 826.69 976.371 795.731M684.673 1281.47C901.313 1411.32 1182.17 1341.3 1312.49 1124.93M160.99 1078.34C265.137 1497.95 690.167 1753.34 1109.56 1648.3M1179.82 824.574C1144.19 681.022 998.783 593.654 855.307 629.589M959.998 1049.06C1048.18 1026.97 1101.83 937.678 1079.93 849.454M905.16 829.335C872.094 837.617 851.974 871.102 860.185 904.186M925.102 909.234C936.125 906.474 942.831 895.312 940.094 884.284M960.07 879.308C954.589 857.223 932.219 843.782 910.145 849.31M820.23 914.138C833.933 969.35 889.859 1002.95 945.042 989.132M815.424 469.792C583.958 527.765 443.119 762.16 500.598 993.75M1679.35 700C1575.2 280.385 1150.17 25.0013 730.78 130.043M660.521 953.764C696.15 1097.32 841.555 1184.68 985.031 1148.75M880.34 729.282C792.162 751.367 738.51 840.661 760.406 928.885M935.178 949.003C968.245 940.721 988.364 907.236 980.153 874.152M915.236 869.104C904.214 871.865 897.507 883.026 900.244 894.055M880.268 899.03C885.75 921.115 908.12 934.557 930.193 929.028M1020.11 864.2C1006.4 808.988 950.479 775.384 895.296 789.206M1024.91 1308.55C1256.38 1250.57 1397.22 1016.18 1339.74 784.589M555.686 1495.58C890.597 1697.3 1325.68 1588.82 1526.68 1253.48M1044.89 681.839C930.319 612.829 781.476 649.939 712.71 764.661M1047.88 965.94C1090.14 895.434 1067.35 804.029 996.932 761.617M872.311 860.507C856.463 886.947 865.009 921.224 891.415 937.129M936.153 898.847C941.436 890.034 938.587 878.608 929.785 873.307M939.377 857.351C921.751 846.734 898.852 852.443 888.272 870.093M872.23 969.041C916.298 995.583 973.545 981.31 999.993 937.186M585.028 687.983C474.091 873.061 533.914 1113 718.754 1224.33M1284.65 282.763C949.743 81.0412 514.662 189.519 313.656 524.86M795.445 1096.5C910.019 1165.51 1058.86 1128.4 1127.63 1013.68M792.464 812.401C750.202 882.907 772.992 974.312 843.407 1016.72M968.027 917.833C983.875 891.393 975.329 857.116 948.923 841.212M904.186 879.494C898.903 888.307 901.752 899.733 910.554 905.034M900.961 920.99C918.588 931.607 941.487 925.897 952.066 908.248M968.108 809.3C924.041 782.758 866.793 797.031 840.345 841.155M1255.31 1090.36C1366.25 905.279 1306.42 665.341 1121.58 554.009M909.394 1501.64C1247.84 1507.91 1527.11 1238.23 1532.65 899.771M923.936 679.718C808.152 677.573 712.613 769.834 710.716 885.622M1049.16 891.449C1050.32 820.288 993.668 761.618 922.509 760.3M871.88 888.398C871.443 915.083 892.689 937.085 919.374 937.579M936.344 889.507C936.49 880.612 929.408 873.278 920.513 873.113M920.799 856.997C902.987 856.667 888.288 870.861 887.996 888.675M918.803 969.812C963.335 970.636 1000.08 935.151 1000.81 890.618M581.784 883.403C578.723 1070.2 727.448 1224.21 914.24 1227.67M930.95 276.695C592.505 270.426 313.237 540.111 307.691 878.569M916.405 1098.62C1032.19 1100.77 1127.73 1008.51 1129.63 892.718M791.182 886.892C790.016 958.053 846.673 1016.72 917.832 1018.04M968.461 889.943C968.898 863.257 947.652 841.256 920.967 840.762M903.997 888.835C903.851 897.73 910.933 905.064 919.828 905.228M919.542 921.344C937.354 921.674 952.053 907.48 952.345 889.666M921.538 808.53C877.006 807.705 840.26 843.19 839.53 887.724M1258.56 894.937C1261.62 708.139 1112.89 554.129 926.1 550.669" stroke="white" stroke-width="2"/>
<path id="Circles1" d="M129.399 1208.53C305.472 1645.67 802.997 1856.85 1239.76 1679.85M1190.64 780.056C1130.4 630.509 960.194 558.261 810.776 618.816M987.416 1055.71C1079.25 1018.5 1123.61 913.972 1086.59 822.063M894.89 826.862C860.453 840.818 843.816 880.014 857.698 914.48M928.536 910.079C940.015 905.427 945.561 892.362 940.933 880.873M961.741 872.472C952.474 849.465 926.289 838.35 903.301 847.666M816.081 931.282C839.248 988.8 904.712 1016.59 962.18 993.298M743.485 452.379C502.433 550.07 385.968 824.444 483.144 1065.7M1710.94 569.81C1534.87 132.672 1037.34 -78.5145 600.58 98.4908M649.701 998.283C709.936 1147.83 880.142 1220.08 1029.56 1159.52M852.922 722.627C761.092 759.843 716.725 864.366 753.744 956.275M945.446 951.479C979.882 937.523 996.52 898.327 982.637 863.861M911.799 868.262C900.321 872.914 894.775 885.979 899.402 897.468M878.594 905.868C887.861 928.875 914.047 939.99 937.034 930.674M1024.26 847.056C1001.09 789.538 935.625 761.75 878.157 785.04M1096.85 1325.96C1337.9 1228.27 1454.37 953.896 1357.19 712.635M618.143 1600.42C1011.02 1767.68 1465.08 1584.22 1631.51 1190.99M1023.55 645.976C889.14 588.755 733.803 651.516 676.869 786.043M1069.95 952.788C1104.94 870.11 1066.4 774.718 983.799 739.551M864.051 865.445C850.93 896.449 865.383 932.222 896.359 945.409M938.925 897.206C943.298 886.871 938.481 874.947 928.155 870.551M936.104 851.837C915.427 843.034 891.529 852.689 882.77 873.386M880.462 982.837C932.156 1004.85 991.901 980.707 1013.8 928.965M527.121 722.522C435.271 939.551 536.442 1189.96 753.274 1282.27M1222.19 177.923C829.318 10.6622 375.255 194.116 208.832 587.348M816.789 1132.36C951.194 1189.58 1106.53 1126.82 1163.47 992.298M770.382 825.553C735.392 908.231 773.933 1003.62 856.536 1038.79M976.283 912.895C989.405 881.891 974.952 846.119 943.976 832.931M901.41 881.136C897.036 891.47 901.853 903.394 912.179 907.79M904.23 926.504C924.907 935.307 948.805 925.652 957.564 904.955M959.874 795.502C908.179 773.494 848.434 797.633 826.536 849.374M1313.21 1055.82C1405.06 838.79 1303.89 588.384 1087.06 496.07M1193.54 1566.05C1567.72 1415.34 1748.49 989.465 1596.98 615.605M826.769 657.654C698.759 709.215 636.916 854.908 688.75 982.808M1062.72 831.609C1030.87 753.004 941.399 715.026 862.726 746.714M866.833 910.807C878.779 940.284 912.331 954.525 941.833 942.642M938.067 882.007C934.085 872.181 922.901 867.434 913.067 871.395M905.876 853.583C886.182 861.515 876.668 883.93 884.642 903.607M956.216 978.267C1005.45 958.436 1029.24 902.4 1009.3 853.208M546.283 1040.41C629.904 1246.74 864.764 1346.44 1071.28 1263.26M646.802 212.284C272.619 362.999 91.8469 788.872 243.36 1162.73M1013.57 1120.69C1141.58 1069.13 1203.42 923.432 1151.59 795.533M777.61 946.732C809.466 1025.34 898.937 1063.31 977.609 1031.63M973.502 867.534C961.556 838.057 928.005 823.815 898.503 835.698M902.27 896.331C906.252 906.157 917.436 910.904 927.27 906.943M934.461 924.756C954.155 916.824 963.669 894.409 955.694 874.733M884.121 800.072C834.887 819.903 811.101 875.939 831.037 925.131M1294.05 737.931C1210.43 531.594 975.572 431.902 769.057 515.084M1527.79 1147.19C1670.68 811.555 1513.96 423.644 1178.02 281.468M712.407 800.853C663.523 915.676 717.139 1048.38 832.067 1097.02M974.519 761.206C903.887 731.313 822.392 764.239 792.348 834.807M899.901 937.11C926.388 948.32 956.948 935.972 968.215 909.509M927.034 873.145C918.205 869.408 908.018 873.524 904.262 882.345M888.275 875.553C880.754 893.219 889.003 913.635 906.684 921.118M1000.19 923.091C1018.99 878.928 998.371 827.887 954.168 809.18M777.801 1224.95C963.211 1303.42 1177.13 1216.99 1256 1031.75M312.543 631.146C169.651 966.784 326.377 1354.69 662.319 1496.87M1127.93 977.488C1176.81 862.664 1123.2 729.958 1008.27 681.319M865.82 1017.13C936.453 1047.03 1017.95 1014.1 1047.99 943.531M940.437 841.229C913.95 830.02 883.39 842.367 872.123 868.83M913.303 905.196C922.132 908.932 932.319 904.817 936.074 895.996M952.061 902.787C959.582 885.122 951.333 864.705 933.652 857.222M840.147 855.248C821.345 899.411 841.967 950.452 886.17 969.16M1062.54 553.388C877.128 474.92 663.204 561.35 584.34 746.592M1487.47 819.595C1449.31 506.072 1163.87 283.06 850.427 321.886M726.154 912.889C739.207 1020.15 836.858 1096.44 944.088 1083.16M905.523 769.694C839.622 777.857 792.77 837.825 800.792 903.743M925.724 933.89C950.437 930.829 968.006 908.341 964.998 883.621M918.377 874.184C910.14 875.204 904.283 882.7 905.286 890.94M890.359 892.767C892.367 909.269 907.39 921.006 923.887 918.963M994.853 879.964C989.832 838.711 952.274 809.367 911.032 814.476M958.779 1202.57C1131.77 1181.15 1254.76 1023.73 1233.7 850.694M352.867 958.743C391.023 1272.27 676.465 1495.28 989.906 1456.45M1114.18 865.452C1101.13 758.194 1003.48 681.9 896.247 695.183M934.813 1008.65C1000.71 1000.48 1047.57 940.516 1039.54 874.598M914.613 844.45C889.9 847.511 872.331 869.999 875.339 894.718M921.959 904.158C930.196 903.137 936.053 895.641 935.05 887.402M949.977 885.574C947.969 869.073 932.946 857.335 916.449 859.379M845.483 898.377C850.504 939.63 888.062 968.974 929.304 963.865M881.557 575.767C708.566 597.195 585.58 754.61 606.639 927.646" stroke="white" stroke-width="2"/>
</g>
<defs>
<filter id="filter0_d" x="0.243019" y="0.803467" width="1839.85" height="1784.73" filterUnits="userSpaceOnUse" color-interpolation-filters="sRGB">
<feFlood flood-opacity="0" result="BackgroundImageFix"/>
<feColorMatrix in="SourceAlpha" type="matrix" values="0 0 0 0 0 0 0 0 0 0 0 0 0 0 0 0 0 0 127 0" result="hardAlpha"/>
<feOffset dy="4"/>
<feGaussianBlur stdDeviation="2"/>
<feComposite in2="hardAlpha" operator="out"/>
<feColorMatrix type="matrix" values="0 0 0 0 1 0 0 0 0 1 0 0 0 0 1 0 0 0 0.25 0"/>
<feBlend mode="normal" in2="BackgroundImageFix" result="effect1_dropShadow"/>
<feBlend mode="normal" in="SourceGraphic" in2="effect1_dropShadow" result="shape"/>
</filter>
</defs>
</svg>
